<svg width="188" height="35" viewBox="0 0 188 35" fill="none" xmlns="http://www.w3.org/2000/svg">
<path d="M29.5708 17.2493L0.000406665 34.4987L0.000408173 -1.29256e-06L29.5708 17.2493Z" fill="#06402B"/>
<path d="M-0.000243387 17.2493L29.5701 34.4987L29.5701 -1.29256e-06L-0.000243387 17.2493Z" fill="#06402B"/>
<path d="M187.094 16.1559L180.579 16.5569C180.467 16 180.228 15.4988 179.86 15.0533C179.493 14.5967 179.008 14.2347 178.407 13.9674C177.817 13.689 177.109 13.5498 176.285 13.5498C175.183 13.5498 174.253 13.7837 173.495 14.2514C172.738 14.7081 172.359 15.3206 172.359 16.0891C172.359 16.7016 172.604 17.2195 173.095 17.6427C173.585 18.0659 174.425 18.4056 175.617 18.6618L180.261 19.5973C182.756 20.1096 184.616 20.9338 185.841 22.0698C187.066 23.2058 187.679 24.6982 187.679 26.5469C187.679 28.2287 187.183 29.7044 186.192 30.974C185.212 32.2436 183.864 33.2349 182.149 33.9476C180.445 34.6493 178.479 35.0001 176.252 35.0001C172.855 35.0001 170.149 34.2929 168.133 32.8785C166.128 31.4529 164.953 29.515 164.608 27.0648L171.608 26.6973C171.819 27.7331 172.332 28.5238 173.145 29.0695C173.958 29.6041 174.999 29.8714 176.269 29.8714C177.516 29.8714 178.518 29.632 179.276 29.1531C180.044 28.663 180.434 28.0338 180.445 27.2653C180.434 26.6193 180.161 26.0903 179.627 25.6782C179.092 25.255 178.268 24.9321 177.154 24.7093L172.71 23.8239C170.204 23.3227 168.339 22.454 167.114 21.2178C165.9 19.9816 165.293 18.4056 165.293 16.49C165.293 14.8417 165.738 13.4217 166.629 12.23C167.531 11.0384 168.796 10.1195 170.422 9.47358C172.059 8.82762 173.974 8.50464 176.168 8.50464C179.409 8.50464 181.96 9.18958 183.82 10.5595C185.691 11.9293 186.782 13.7948 187.094 16.1559Z" fill="#06402B"/>
<path d="M122.835 34.4989V8.83875H129.618V13.366H129.918C130.453 11.8625 131.344 10.6764 132.591 9.80769C133.839 8.93899 135.331 8.50464 137.068 8.50464C138.828 8.50464 140.326 8.94456 141.562 9.8244C142.799 10.6931 143.623 11.8736 144.035 13.366H144.302C144.825 11.8959 145.772 10.7209 147.142 9.8411C148.523 8.95013 150.155 8.50464 152.037 8.50464C154.431 8.50464 156.375 9.26754 157.867 10.7933C159.371 12.308 160.123 14.4575 160.123 17.2418V34.4989H153.023V18.6451C153.023 17.2195 152.644 16.1503 151.887 15.4376C151.129 14.7248 150.183 14.3684 149.047 14.3684C147.755 14.3684 146.747 14.7805 146.023 15.6046C145.299 16.4176 144.937 17.4924 144.937 18.8288V34.4989H138.037V18.4947C138.037 17.2362 137.675 16.2339 136.951 15.4877C136.239 14.7415 135.298 14.3684 134.128 14.3684C133.337 14.3684 132.625 14.5689 131.99 14.9698C131.366 15.3596 130.87 15.9109 130.503 16.6237C130.135 17.3253 129.952 18.1495 129.952 19.0961V34.4989H122.835Z" fill="#06402B"/>
<path d="M105.577 35.0001C102.982 35.0001 100.738 34.4488 98.8449 33.3462C96.9627 32.2325 95.5093 30.6844 94.4847 28.702C93.4601 26.7084 92.9478 24.3975 92.9478 21.7691C92.9478 19.1184 93.4601 16.8019 94.4847 14.8194C95.5093 12.8259 96.9627 11.2778 98.8449 10.1752C100.738 9.0615 102.982 8.50464 105.577 8.50464C108.172 8.50464 110.411 9.0615 112.293 10.1752C114.187 11.2778 115.645 12.8259 116.67 14.8194C117.695 16.8019 118.207 19.1184 118.207 21.7691C118.207 24.3975 117.695 26.7084 116.67 28.702C115.645 30.6844 114.187 32.2325 112.293 33.3462C110.411 34.4488 108.172 35.0001 105.577 35.0001ZM105.611 29.4872C106.791 29.4872 107.777 29.1531 108.568 28.4848C109.359 27.8055 109.954 26.8811 110.355 25.7117C110.767 24.5422 110.973 23.2113 110.973 21.719C110.973 20.2266 110.767 18.8957 110.355 17.7263C109.954 16.5569 109.359 15.6325 108.568 14.9531C107.777 14.2737 106.791 13.934 105.611 13.934C104.419 13.934 103.417 14.2737 102.604 14.9531C101.802 15.6325 101.195 16.5569 100.783 17.7263C100.382 18.8957 100.181 20.2266 100.181 21.719C100.181 23.2113 100.382 24.5422 100.783 25.7117C101.195 26.8811 101.802 27.8055 102.604 28.4848C103.417 29.1531 104.419 29.4872 105.611 29.4872Z" fill="#06402B"/>
<path d="M75.9287 34.4989V8.83872H82.8282V13.3159H83.0955C83.5633 11.7233 84.3485 10.5204 85.4511 9.70742C86.5537 8.88327 87.8233 8.47119 89.26 8.47119C89.6164 8.47119 90.0006 8.49347 90.4127 8.53801C90.8248 8.58256 91.1868 8.64382 91.4986 8.72178V15.0366C91.1645 14.9364 90.7023 14.8473 90.112 14.7693C89.5217 14.6913 88.9816 14.6524 88.4915 14.6524C87.4446 14.6524 86.5091 14.8807 85.685 15.3373C84.8719 15.7828 84.226 16.4065 83.7471 17.2083C83.2793 18.0102 83.0454 18.9346 83.0454 19.9815V34.4989H75.9287Z" fill="#06402B"/>
<path d="M46.0005 6.24914V0.285156H74.0998V6.24914H63.6252V34.4987H56.4751V6.24914H46.0005Z" fill="#06402B"/>
</svg>
